# xmcd
#
# Track frame offsets: 
#        150
#        18311
#        41438
#        60709
#        77896
#        92718
#        111326
#        124113
#        142980
#        159872
#        178263
#        190119
#        204295
#        219242
#        234727
#        251376
#        274603
#        288288
#
# Disc length: 4125 seconds
#
# Revision: 0
# Processed by: cddbd v1.5.2PL0 Copyright (c) Steve Scherf et al.
# Submitted via: ExactAudioCopy v1.0b3
#
DISCID=f4101b12
DTITLE=Various Artist - The Walter Davis Project
DYEAR=2013
DGENRE=Blues
TTITLE0=Henry Townsend - Nothin' But Blues
TTITLE1=Billy Boy Arnold - Oh! Me! Oh! My! Blues
TTITLE2=Charlie Musselwhite - Why Should I Be Blue
TTITLE3=Jimmy McCracklin - Blue Sky Is My Blanket
TTITLE4=Billy Boy Arnold - Talk It Over
TTITLE5=Billy Boy Arnold - Angel Child
TTITLE6=Keith Dunn and Chris Rannenberg - Just Can't Help It
TTITLE7=Charlie Musselwhite - Friends We Must Part
TTITLE8=Billy Boy Arnold - New B and O Blues
TTITLE9=Keith Dunn and Chris Rannenberg - Ashes In My Whiskey
TTITLE10=Christian Rannenberg - The Dozens According To Mr. Davis
TTITLE11=Billy Boy Arnold - Goodbye
TTITLE12=Billy Boy Arnold - Move Back To The Woods
TTITLE13=Jimmy McCracklin - Don't You Wanna To Go
TTITLE14=Billy Boy Arnold - Holiday Blues
TTITLE15=Billy Boy Arnold - My Friends Don't Know Me Now
TTITLE16=Billy Boy Arnold - "Please Remember Me
TTITLE17=Jimmy McCracklin and Chris Rannenberg - Jimmy McCracklin Inte
TTITLE17=rview
EXTD=
EXTT0=
EXTT1=
EXTT2=
EXTT3=
EXTT4=
EXTT5=
EXTT6=
EXTT7=
EXTT8=
EXTT9=
EXTT10=
EXTT11=
EXTT12=
EXTT13=
EXTT14=
EXTT15=
EXTT16=
EXTT17=
PLAYORDER=
